# xmcd CD database file
#
# Track frame offsets:
#	150
#	18898
#	39830
#	63065
#	75370
#
# Disc length: 1193 seconds
#
# Revision: 0
# Processed by: cddbd v1.5.2PL0 Copyright (c) Steve Scherf et al.
# Submitted via: CDex 1.51
#
DISCID=2404a705
DTITLE=Rachael Magdison - The Clouds Have Passed
DYEAR=2010
DGENRE=Jazz
TTITLE0=Dearly Beloved
TTITLE1=Long ago and far away
TTITLE2=Darn that dream
TTITLE3=Too close for confort
TTITLE4=Just in time
EXTD=YEAR: 2010
EXTT0=
EXTT1=
EXTT2=
EXTT3=
EXTT4=
PLAYORDER=
